# xmcd
#
# Track frame offsets: 
#        150
#        18445
#        38132
#        66495
#        80487
#        97142
#        112095
#        139785
#        168460
#        184145
#        199762
#        222352
#
# Disc length: 3266 seconds
#
# Revision: 4
# Processed by: cddbd v1.5.2PL0 Copyright (c) Steve Scherf et al.
# Submitted via: ExactAudioCopy v1.0b3
#
DISCID=b40cc00c
DTITLE=Robben Ford and The Ford Blues Band - A Tribute To Paul Butterfie
DTITLE=ld
DYEAR=2001
DGENRE=Blues
TTITLE0=Screamin'
TTITLE1=One More Heartache
TTITLE2=Last Hopes Gone
TTITLE3=Good Morning Little Schoolgirl
TTITLE4=No Amount Of Loving
TTITLE5=Mary Mary
TTITLE6=Work Song
TTITLE7=In My Own Dream
TTITLE8=Buddy's Advice
TTITLE9=All These Blues
TTITLE10=Tollin' Bells
TTITLE11=Everthing's Gonna Be Alright
EXTD=YEAR: 2001
EXTT0=
EXTT1=
EXTT2=
EXTT3=
EXTT4=
EXTT5=
EXTT6=
EXTT7=
EXTT8=
EXTT9=
EXTT10=
EXTT11=
PLAYORDER=
